<?xml version="1.0" standalone="no"?><!DOCTYPE svg PUBLIC "-//W3C//DTD SVG 1.1//EN" "http://www.w3.org/Graphics/SVG/1.1/DTD/svg11.dtd"><svg t="1556087807680" class="icon" style="" viewBox="0 0 1024 1024" version="1.1" xmlns="http://www.w3.org/2000/svg" p-id="3916" xmlns:xlink="http://www.w3.org/1999/xlink" width="16" height="16"><defs><style type="text/css"></style></defs><path d="M426.666667 128v298.666667H128V128h298.666667m0-42.666667H128c-25.6 0-42.666667 17.066667-42.666667 42.666667v298.666667c0 25.6 17.066667 42.666667 42.666667 42.666666h298.666667c25.6 0 42.666667-17.066667 42.666666-42.666666V128c0-25.6-17.066667-42.666667-42.666666-42.666667zM896 128v298.666667h-298.666667V128h298.666667m0-42.666667h-298.666667c-25.6 0-42.666667 17.066667-42.666666 42.666667v298.666667c0 25.6 17.066667 42.666667 42.666666 42.666666h298.666667c25.6 0 42.666667-17.066667 42.666667-42.666666V128c0-25.6-17.066667-42.666667-42.666667-42.666667zM426.666667 597.333333v298.666667H128v-298.666667h298.666667m0-42.666666H128c-25.6 0-42.666667 17.066667-42.666667 42.666666v298.666667c0 25.6 17.066667 42.666667 42.666667 42.666667h298.666667c25.6 0 42.666667-17.066667 42.666666-42.666667v-298.666667c0-25.6-17.066667-42.666667-42.666666-42.666666z" fill="" p-id="3917"></path><path d="M213.333333 213.333333h128v128H213.333333zM213.333333 682.666667h128v128H213.333333zM682.666667 213.333333h128v128h-128zM554.666667 554.666667h85.333333v170.666666h-85.333333zM554.666667 810.666667h85.333333v128h-85.333333zM640 725.333333h85.333333v85.333334h-85.333333zM725.333333 810.666667h85.333334v128h-85.333334zM725.333333 554.666667h85.333334v170.666666h-85.333334zM896 554.666667h42.666667v213.333333h-42.666667zM896 810.666667h42.666667v128h-42.666667zM810.666667 640h85.333333v85.333333h-85.333333zM810.666667 810.666667h85.333333v42.666666h-85.333333z" fill="" p-id="3918"></path></svg>