<?xml version="1.0" standalone="no"?><!DOCTYPE svg PUBLIC "-//W3C//DTD SVG 1.1//EN" "http://www.w3.org/Graphics/SVG/1.1/DTD/svg11.dtd"><svg t="1556089804622" class="icon" style="" viewBox="0 0 1024 1024" version="1.1" xmlns="http://www.w3.org/2000/svg" p-id="3047" xmlns:xlink="http://www.w3.org/1999/xlink" width="16" height="16"><defs><style type="text/css"></style></defs><path d="M686.292 176.825h97.308c30.836 0 63.577 31.936 63.577 65.922v94.962h53.628v-142.181c0-39.939-32.74-72.331-68.979-72.331h-145.534v53.628z" p-id="3048"></path><path d="M176.825 337.708v-94.962c0-33.986 26.036-65.922 56.873-65.922h90.604v-53.628h-138.831c-36.239 0-62.275 32.392-62.275 72.331v142.181h53.628z" p-id="3049"></path><path d="M324.3 847.175h-90.605c-30.836 0-56.873-31.936-56.873-65.922v-81.555h-53.628v128.775c0 39.939 26.036 72.331 62.275 72.331h138.83v-53.628z" p-id="3050"></path><path d="M847.175 699.7v81.555c0 33.986-32.74 65.922-63.577 65.922h-97.308v53.628h145.534c36.239 0 68.979-32.392 68.979-72.331v-128.775h-53.628z" p-id="3051"></path><path d="M873.99 505.297c0 18.516-15.002 33.518-33.518 33.518h-643.538c-18.516 0-33.518-15.002-33.518-33.518s15.002-33.518 33.518-33.518h643.538c18.516 0 33.518 15.002 33.518 33.517z" p-id="3052"></path></svg>